<?xml version="1.0" encoding="UTF-8" standalone="no"?>
<svg width="200" height="200" viewBox="0 0 200 200" xmlns="http://www.w3.org/2000/svg">
  <!-- Gradient definitions -->
  <defs>
    <linearGradient id="sphereGradient" x1="0%" y1="0%" x2="100%" y2="100%">
      <stop offset="0%" stop-color="#4361EE" />
      <stop offset="100%" stop-color="#7209B7" />
    </linearGradient>
    <linearGradient id="chatGradient" x1="0%" y1="0%" x2="100%" y2="100%">
      <stop offset="0%" stop-color="#3CCFCF" />
      <stop offset="100%" stop-color="#4361EE" />
    </linearGradient>
  </defs>

  <!-- Main circle/sphere -->
  <circle cx="100" cy="100" r="80" fill="url(#sphereGradient)" />
  
  <!-- Highlight on sphere -->
  <ellipse cx="70" cy="70" rx="20" ry="20" fill="white" opacity="0.2" />
  
  <!-- Chat bubble left -->
  <path d="M70,80 Q50,100 70,120 L60,130 L75,125 Q100,140 120,115 Q140,90 115,75 Q90,60 70,80 Z" 
        fill="url(#chatGradient)" />
  
  <!-- Chat bubble right -->
  <path d="M130,85 Q150,105 130,125 L140,135 L125,130 Q100,145 80,120 Q60,95 85,80 Q110,65 130,85 Z" 
        fill="white" opacity="0.85" transform="translate(10, -15)" />
  
  <!-- Dots in chat bubbles representing messages -->
  <circle cx="85" cy="95" r="4" fill="white" />
  <circle cx="100" cy="95" r="4" fill="white" />
  <circle cx="115" cy="95" r="4" fill="white" />
  
  <!-- Small decorative circle elements -->
  <circle cx="150" cy="50" r="8" fill="#3CCFCF" opacity="0.7" />
  <circle cx="40" cy="140" r="12" fill="#7209B7" opacity="0.7" />
  <circle cx="160" cy="140" r="6" fill="#4361EE" opacity="0.7" />
</svg> 